<?xml version="1.0" encoding="UTF-8" standalone="no"?>
<!DOCTYPE svg PUBLIC "-//W3C//DTD SVG 1.1//EN" "http://www.w3.org/Graphics/SVG/1.1/DTD/svg11.dtd">
<svg width="100%" height="100%" viewBox="0 0 1024 1024" version="1.1" xmlns="http://www.w3.org/2000/svg" xmlns:xlink="http://www.w3.org/1999/xlink" xml:space="preserve" xmlns:serif="http://www.serif.com/" style="fill-rule:evenodd;clip-rule:evenodd;stroke-linejoin:round;stroke-miterlimit:2;">
    <g transform="matrix(1.22485,0,0,1.22485,-113.054,-114.928)">
        <path d="M279,773C284,771 305,751 405,650C472,584 528,527 529,525C532,521 533,520 533,513C533,505 532,504 529,499C527,496 478,447 405,374C270,241 279,249 265,248C250,247 240,252 236,261C235,265 235,276 234,506C233,638 233,749 234,753C235,765 239,770 250,774C258,777 273,776 279,773ZM534,773C539,771 553,758 662,649C795,516 788,524 787,512C787,501 792,506 660,374C565,280 537,253 534,251C527,248 514,247 505,250C498,252 491,258 489,265C488,268 488,288 488,341C489,413 489,413 529,454C575,500 575,499 574,513C574,519 574,521 572,525C570,528 556,543 529,571C488,613 488,613 488,684C488,733 488,757 489,760C491,765 498,772 505,774C512,777 527,776 534,773Z" style="fill-rule:nonzero;"  fill="#000"/>
    </g>
</svg>
