<?xml version="1.0" encoding="UTF-8"?>
<!DOCTYPE svg  PUBLIC '-//W3C//DTD SVG 1.1//EN'  'http://www.w3.org/Graphics/SVG/1.1/DTD/svg11.dtd'>
<svg clip-rule="evenodd" fill-rule="evenodd" stroke-linejoin="round" stroke-miterlimit="2" version="1.1" viewBox="0 0 1024 1024" xml:space="preserve" xmlns="http://www.w3.org/2000/svg">
    <path d="m275.06 832.1c2-1 20.935-14.096 41.935-29.096 21-16 48-35 59-44 36-26 103-76 145-107 65-48 108-79 126-93 24-18 30-26 31-45 0-11-2-20-8-29-5-7-5-8-47-38-17-13-67-50-110-81-43-32-101-75-127-94-27-20-62-46-78-58s-31-22-34-23c-7-3-18-3-25 0-14 7-22 22-18 36 1 3 30 68 66 144 46 99 65 140 65 142-1 1-30 65-65 141-36 76-65 140-66 143-4 16 7 34 24 38 5 1 14.065-0.904 20.065-2.904zm181.94 0.904c3-1 14-9 25-17s30-22 42-31 59-43 105-77c113-84 144-107 181-134 17-13 34-25 37-28 19-19 18-51-2-69-3-3-36-28-71-54s-70-51-77-56c-18-13-129-96-187-138-27-20-51-37-53-38-6-3-19-3-25 0-13 6-26.325 22.614-23.325 35.614 1 3-0.105 10.107 8.057 20.011l13.623 14.858 124.64 95.517c69 51 128 94 130 97 10 9 18 23 22 37 3 11 3 31 0 42-4 15-12 29-22 38-3 2-30 23-61 45-30 22-77 57-104 77-28 21-60 44-71 52-6.717 4.746-13.187 10.692-17.323 17.331-5.046 4.181-8.16 9.025-11.484 14.927-5 9-6.419 17.614-7.193 21.742-3 16 8 32 24 36 5 1 16 0 20-2z" fill-rule="nonzero" fill="#000"/>
</svg>
